<?xml version="1.0" encoding="UTF-8" standalone="no"?>
<svg
   xmlns:dc="http://purl.org/dc/elements/1.1/"
   xmlns:cc="http://creativecommons.org/ns#"
   xmlns:rdf="http://www.w3.org/1999/02/22-rdf-syntax-ns#"
   xmlns:svg="http://www.w3.org/2000/svg"
   xmlns="http://www.w3.org/2000/svg"
   viewBox="0 0 255 255"
   height="255"
   width="255"
   xml:space="preserve"
   id="svg2"
   version="1.1"><metadata
     id="metadata8"><rdf:RDF><cc:Work
         rdf:about=""><dc:format>image/svg+xml</dc:format><dc:type
           rdf:resource="http://purl.org/dc/dcmitype/StillImage" /><dc:title></dc:title></cc:Work></rdf:RDF></metadata><defs
     id="defs6"><clipPath
       id="clipPath18"
       clipPathUnits="userSpaceOnUse"><path
         id="path16"
         d="M 0,841.89 H 595.276 V 0 H 0 Z" /></clipPath></defs><g
     transform="matrix(1.3333333,0,0,-1.3333333,0,1122.52)"
     id="g10"><g
       id="g12"><rect
         transform="scale(1,-1)"
         y="-841.89001"
         x="0"
         height="191.25"
         width="191.25"
         id="rect308"
         style="color:#000000;overflow:visible;fill:#ffffff;fill-opacity:1;stroke-width:12.8085;stroke-linecap:square;stroke-linejoin:bevel" /><g
         transform="matrix(0.78731015,0,0,0.78731015,-126.46489,372.27849)"
         id="g306"><g
           transform="translate(231.1104,572.2676)"
           id="g20"><path
             id="path22"
             style="fill:#3067ba;fill-opacity:1;fill-rule:nonzero;stroke:none"
             d="M 0,0 9.25,-9.259 C -0.59,-19.459 -6.723,-33.255 -6.989,-48.508 H -20.128 C -19.818,-29.645 -12.215,-12.58 0,0 M 49.92,21.599 V 8.448 C 34.703,8.176 20.924,2.05 10.736,-7.777 L 1.482,1.482 c 12.563,12.204 29.605,19.81 48.438,20.117 m 0.773,-58.291 c -0.147,-0.292 -0.902,-0.292 -1.392,-0.411 -0.252,-0.084 -0.252,-0.487 -0.229,-0.819 0.032,-0.255 0.322,-0.215 0.481,-0.316 0.486,-0.472 0.527,-1.291 1.14,-1.575 0.75,-0.351 1.66,-0.11 2.566,-0.351 0.573,-0.13 1.025,-0.529 1.268,-1.114 0.136,-0.33 0.619,-0.493 0.643,-0.988 0.026,-0.165 0.24,-0.324 0.475,-0.442 0.269,-0.084 0.616,0.187 0.877,0.075 0.382,-0.11 0.228,-0.611 0.324,-0.927 0.188,-0.585 -0.127,-1.23 0.495,-1.821 0.229,-0.197 -0.237,-0.799 -0.509,-1.146 -0.113,-0.122 -0.501,-0.122 -0.542,-0.307 -0.156,-0.519 -0.029,-1.002 0.232,-1.419 0.197,-0.234 0.5,0 0.582,-0.162 0.452,-0.582 0.651,-1.225 1.03,-1.752 0.165,-0.2 0.351,-0.457 0.579,-0.544 -0.277,-0.052 -0.364,-0.399 -0.277,-0.527 0.168,-0.223 0.556,-0.365 0.752,-0.157 0.316,0.209 0.664,0.285 0.97,0.565 0.183,0.206 0.489,0.131 0.686,0.328 0.215,-0.209 0.4,-0.655 0.244,-0.855 -0.458,-0.449 -1.283,-0.136 -1.816,-0.486 -0.373,-0.171 -0.73,-0.075 -0.923,-0.365 -0.177,-0.185 0,-0.617 0.333,-0.66 1.17,-0.249 0.255,-1.931 -0.313,-2.794 -0.136,-0.188 0,-0.504 -0.07,-0.86 -0.034,-0.156 -0.251,-0.24 -0.387,-0.24 -1.127,-0.107 -2.267,0.289 -3.292,-0.075 -0.336,-0.096 -0.518,-0.594 -0.683,-0.999 h 0.202 c -0.307,-0.041 -0.307,-0.365 -0.365,-0.53 -0.066,-0.206 -0.037,-0.588 -0.17,-0.764 -0.982,-1.092 -1.121,-2.467 -1.304,-3.727 -0.031,-0.388 0.441,-0.637 0.721,-0.637 0.272,0 0.667,0.316 0.916,0.316 0.246,-0.032 0.338,-0.235 0.399,-0.475 -1.031,-0.243 -2.102,-0.382 -3.202,-0.394 -0.006,0.021 -0.009,0.047 -0.015,0.055 -0.177,0.186 -0.362,0.186 -0.426,0.44 -0.185,0.374 -0.494,-0.254 -0.86,-0.214 -0.04,0 -0.098,-0.11 -0.083,-0.223 -3.399,0.301 -6.462,1.755 -8.793,3.972 1.039,0.241 1.899,1.112 2.869,1.318 0.828,0.261 1.856,0.486 2.826,0.486 2.183,0.049 2.061,2.838 3.181,4.598 0.247,0.434 -0.129,1.407 -0.439,1.862 -0.745,1.192 -3.069,-0.165 -3.605,1.097 -0.307,0.712 1.569,-0.454 1.752,0.655 0.026,0.297 -0.151,0.659 -0.374,0.772 -0.298,0.171 -0.886,0.215 -1.117,0 -1.176,-0.99 -1.396,-2.689 -1.995,-3.807 -1.161,-1.998 -3.121,-3.506 -4.369,-5.614 -0.51,0.637 -0.973,1.317 -1.375,2.035 0.04,0.192 0.089,0.38 0.193,0.516 0.215,0.275 0.461,0.556 0.617,0.837 0.105,0.182 0.313,0.393 0.232,0.651 0.263,0 0.263,0.333 0.512,0.368 0.635,0.075 0.527,-0.486 0.739,-0.837 0,-0.015 0.176,-0.015 0.266,0 0.955,1.037 1.566,2.255 1.807,3.685 0,0.111 0.266,0.238 0.266,0.285 -0.145,0.648 -0.839,0.862 -1.15,1.406 -0.364,-0.952 -1.329,-0.179 -2.049,-0.639 -0.015,-0.024 -0.07,-0.281 0.121,-0.356 0.264,-0.131 0.635,-0.012 0.724,-0.209 0.171,-0.249 0.171,-0.695 -0.089,-1.01 -0.036,-0.076 -0.244,-0.061 -0.244,0 -0.371,0.732 -0.973,0.634 -1.65,0.634 0.275,-0.235 -0.22,-0.177 -0.102,-0.319 -0.63,0.168 -1.25,0.015 -1.864,-0.125 -0.113,0.71 -0.185,1.431 -0.188,2.175 0.003,0.423 0.031,0.84 0.066,1.251 0.559,-0.11 1.242,-0.278 1.599,0.185 0.176,0.165 0.527,-0.336 0.732,-0.576 0.087,-0.076 -0.032,-0.203 -0.121,-0.304 -0.342,-0.345 -0.872,-0.371 -1.081,-0.886 -0.159,-0.345 0.044,-0.649 0.308,-0.741 0.431,-0.206 0.564,0.396 0.773,0.692 0.237,0.292 0.498,0.049 0.732,0 0,0.095 -0.026,0.228 0,0.228 0.51,0.151 1.094,0.064 1.622,0.064 0.627,0 0.297,1.28 0.237,2.041 0,0.168 -0.015,0.38 0,0.562 0,0.096 0,0.203 0.06,0.298 0.177,0.417 0.988,0.536 1.124,0.09 0.015,-0.153 0.046,-0.292 0.09,-0.429 0.037,-0.225 0.147,-0.353 0.431,-0.225 0.067,0.049 0.151,0.115 0.165,0.225 0.113,0.244 0.064,0.638 0.226,0.771 0.237,0.251 0.576,-0.377 0.967,-0.432 0.396,-0.095 0.837,-0.095 1.155,0.134 0.275,0.165 0.275,0.489 0.044,0.825 -0.099,0.135 -0.316,0.168 -0.362,0.11 -0.368,-0.386 -0.837,-0.299 -1.228,-0.299 -0.365,0 -0.538,0.458 -0.848,0.675 -0.345,0.249 -0.776,-0.252 -1.17,-0.087 -0.376,0.183 -0.567,0.545 -0.353,0.901 0.089,0.162 0.353,0.335 0.573,0.46 0.457,0.234 0.996,0.234 1.26,0.631 0.199,0.362 0.321,0.799 0.347,1.21 0.026,0.223 0.255,0.223 0.379,0.249 0.536,0.191 1.158,0.064 1.633,0.293 0.55,0.214 0.961,0.677 1.497,1.045 0.258,0.151 0.515,0.298 0.811,0.362 0.148,0.055 0.229,0.307 0.26,0.417 0.113,0.912 -0.133,1.757 0,2.71 0.07,0.251 0.455,0.411 0.269,0.695 -0.06,0.092 -0.437,-0.067 -0.529,0.052 -0.215,0.179 -0.403,0.538 -0.081,0.73 0.229,0.208 0.738,0.022 0.918,0.35 0.017,0.023 0.017,0.061 0.034,0.084 0.449,0.064 0.906,0.107 1.373,0.124 -0.024,-0.588 0.5,-1.158 0.329,-1.624 m 5.337,0.741 c -0.052,-0.023 -0.096,-0.067 -0.162,-0.081 -0.458,-0.084 -0.722,0.078 -0.898,0.428 v 0.006 c 0.359,-0.101 0.709,-0.22 1.06,-0.353 m -4.005,14.109 c 6.853,-0.272 13.067,-3.02 17.781,-7.392 l -0.591,-0.591 c -0.024,0.009 -0.058,-0.002 -0.078,0.015 -0.403,0.231 -0.712,0.585 -1.121,0.738 -1.445,0.38 -2.302,-0.868 -3.167,-1.638 -0.296,0.9 -1.019,0.034 -1.599,0.144 -0.249,0.024 -0.37,0.342 -0.509,0.342 -0.217,-0.041 -0.428,-0.075 -0.571,-0.226 -0.399,-0.226 -0.092,-0.828 0.316,-0.756 0.301,0 0.515,0.44 0.649,0.174 0.295,-0.495 0.098,-1.343 0.857,-1.167 0.492,0.119 0.79,0.47 1.326,0.522 0.527,0.026 0.59,0.596 0.527,1.001 0.552,0.07 1.207,0.519 1.557,0.07 0.157,-0.154 0.211,-0.475 0.342,-0.695 l -1.208,-1.201 c -0.249,0.156 -0.494,0.234 -0.784,0.02 -0.744,-0.551 -1.648,-0.886 -2.432,-1.26 -0.709,-0.336 -1.326,-1.161 -1.735,-1.931 -0.115,-0.255 -0.324,-0.475 -0.578,-0.645 -1.228,0.932 -2.589,1.693 -4.051,2.258 0.273,0.136 0.533,0.284 0.831,0.399 0.512,0.171 0.582,0.727 0.391,1.231 -0.006,0.084 -0.044,0.231 -0.122,0.35 -0.043,0.269 -0.089,0.678 -0.182,0.678 -1.228,-0.09 -2.261,-0.938 -2.918,-2.03 -0.944,0.235 -1.926,0.388 -2.931,0.449 z m 0,14.375 c 10.832,-0.287 20.629,-4.636 27.949,-11.596 l -8.675,-8.671 c -5.096,4.748 -11.836,7.73 -19.274,7.982 z m 0,13.822 C 60.32,6.19 68.176,4.247 75.208,0.857 74.996,0.492 74.481,0.104 74.701,-0.238 c 0.108,-0.084 -0.197,-0.02 -0.096,-0.15 0.215,-0.209 0.577,-0.049 0.875,-0.049 0.333,-0.044 0.466,-0.415 0.655,-0.588 0.428,-0.437 0.915,-0.86 1.16,-1.41 0.101,-0.206 -0.289,-0.6 -0.098,-0.794 0.538,-0.555 0.428,-1.053 0.428,-1.719 0,-0.278 0.582,-0.015 0.722,-0.107 0.784,-0.411 0.928,-1.41 0.717,-2.207 -0.116,-0.428 -0.078,-1.036 0.105,-1.384 0.396,-0.761 0.48,-1.858 1.195,-2.435 0.159,0.247 0.348,0.577 0.49,0.545 0.62,-0.096 0.633,0.393 1.016,0.625 1.195,0.794 2.18,-0.767 2.504,-1.67 0.296,-0.825 0.062,-1.871 0.354,-2.728 L 82.339,-16.7 c -0.069,0.272 0.006,0.524 0.015,0.738 0.023,0.408 -0.553,0.261 -0.655,0.455 -0.225,0.495 -0.405,1.335 0.553,1.256 0.038,0 -0.139,0.18 -0.096,0.348 -0.318,0 -0.622,-0.053 -0.928,0 -0.227,0.026 -0.227,0.35 -0.227,0.443 -0.095,0.529 0.183,1.189 -0.289,1.554 -0.414,0.249 -0.933,0.325 -1.341,0.614 -0.345,0.281 -0.642,0.498 -1.024,0.727 -0.249,0.159 -0.666,-0.229 -0.855,0 -0.793,0.88 -1.357,1.919 -2.084,2.921 -0.296,0.316 -0.857,0.304 -1.367,0.232 -0.147,-0.032 -0.072,-0.188 -0.104,-0.278 0.067,0 0.151,0 0.206,-0.032 0.17,-0.081 0.057,-0.292 0.132,-0.37 0.461,-0.276 0.768,-0.66 0.907,-1.054 0.226,-0.539 -0.168,-1.228 0.188,-1.767 0.069,-0.225 0.289,-0.379 0.385,-0.504 0.221,-0.251 -0.012,-0.729 0.058,-1.053 0.058,-0.2 0.086,-0.385 0.122,-0.576 -1.24,0.851 -2.522,1.65 -3.851,2.374 0.069,0.104 0.145,0.208 0.202,0.318 0.339,0.501 1.185,0.211 1.824,0.443 -0.106,-0.399 0.18,-0.356 0.394,-0.527 -0.028,0.443 -0.028,1.031 -0.304,1.237 -0.582,0.341 -0.61,0.833 -0.909,1.369 -0.072,0.188 -0.394,-0.087 -0.394,-0.182 0.061,-0.895 -0.689,-0.738 -1.291,-0.959 -0.032,-0.066 0.035,-0.228 -0.032,-0.304 0,-0.032 -0.09,-0.032 -0.191,0 -0.107,0.131 -0.194,0.186 -0.171,0.385 -0.316,0 -0.746,0 -0.868,-0.199 -0.136,-0.232 -0.333,-0.348 -0.516,-0.492 -0.393,0.185 -0.778,0.396 -1.181,0.567 0.035,0.162 0.035,0.307 -0.014,0.518 -0.015,0.13 -0.139,0.13 -0.246,0.07 -0.136,-0.064 -0.151,-0.267 -0.292,-0.333 -4.957,2.084 -10.389,3.251 -16.07,3.384 z m 0,15.244 C 70.877,21.297 87.933,13.686 100.504,1.474 l -8.836,-8.837 c -0.183,0.779 0.237,1.836 -0.012,2.67 -0.101,0.46 -0.602,0.46 -1.046,0.46 -0.153,0 -0.321,0.145 -0.399,0.321 -0.385,0.683 -0.081,1.445 -0.535,2.076 -0.69,0.984 -1.459,1.729 -2.221,2.696 -0.434,0.477 -1.059,0.414 -1.604,0.463 -0.157,0.014 -0.255,0.113 -0.391,0.208 -0.199,0.125 -0.264,0.374 -0.376,0.568 -0.302,0.55 -0.973,0.79 -1.538,1.048 C 82.51,3.576 81.398,3.361 80.298,3.503 79.435,3.576 78.482,3.269 77.843,2.733 77.6,2.545 77.321,2.432 77.05,2.302 69.501,6.097 61.015,8.292 52.025,8.448 Z M 122.1,-48.508 h -13.092 c -0.152,8.628 -2.169,16.801 -5.69,24.112 0.368,0.2 0.756,0.354 1.078,0.649 0.387,0.292 0.179,0.952 0,1.143 -0.542,0.664 -0.58,1.405 -0.936,1.946 -0.327,0.51 -1.123,0.568 -1.546,1.167 -0.203,0.292 0.183,0.796 -0.136,1.028 -0.185,0.144 -0.377,0.298 -0.414,0.46 -0.26,0.695 -0.585,1.161 -1.23,1.482 0.211,0.82 -0.539,1.231 -1.304,1.439 -0.034,0.044 0.067,0.264 0.067,0.356 -0.026,0.313 -0.425,0.409 -0.689,0.501 -0.102,0.055 -0.304,0 -0.345,0.055 -0.387,0.513 -0.928,0.924 -1.12,1.364 -0.234,0.738 -0.927,1.149 -1.546,1.56 -0.226,0.108 -0.42,0.742 -0.53,0.742 -0.286,0 -0.631,-0.003 -0.852,0.13 -0.043,0.049 -0.091,0.096 -0.138,0.142 -0.031,0.055 -0.075,0.098 -0.084,0.176 -0.034,0.449 -0.238,0.817 -0.513,1.139 l 8.906,8.908 c 12.209,-12.577 19.813,-29.642 20.114,-48.499 m -20.09,-50.54 -9.251,9.236 c 9.846,10.197 15.976,23.988 16.249,39.208 H 122.1 c -0.301,-18.839 -7.896,-35.884 -20.09,-48.444 m -33.516,25.392 c 0.252,-0.139 0.509,-0.287 0.79,-0.388 1.182,-0.408 2.357,-0.53 3.613,-0.785 0.976,-0.223 1.654,-0.921 2.583,-1.143 0.173,-0.055 0.328,-0.055 0.478,-0.038 l 0.588,-0.588 c -0.224,-0.061 -0.452,-0.142 -0.669,-0.176 -0.507,-0.11 -1.057,-0.11 -1.602,0.043 -2.417,0.68 -4.547,1.558 -6.876,2.293 0.371,0.252 0.733,0.519 1.095,0.782 m 5.414,39.691 c -0.223,-0.339 -0.336,-0.706 -0.654,-0.874 -0.321,-0.157 -0.747,-0.188 -1.089,-0.348 -0.591,-0.231 -0.252,-0.99 0,-1.545 0.121,-0.186 0.043,-0.516 -0.162,-0.658 -0.429,-0.246 -0.519,0.287 -0.62,0.504 -0.171,0.53 -0.336,1.135 -0.336,1.699 -0.052,0.588 0.698,0.959 0.866,1.526 0.127,0.333 0.229,0.727 -0.012,1.112 -0.26,0.414 -0.689,0.614 -1.093,0.489 -1.055,-0.286 -1.362,-2.122 -2.421,-1.641 -0.015,0.009 -0.03,0.026 -0.044,0.029 l 2.948,2.953 c 0.943,-1.022 1.829,-2.094 2.617,-3.246 m 9.615,11.135 c -0.011,-0.078 -0.055,-0.147 -0.026,-0.219 0.105,-0.186 0.281,-0.29 0.472,-0.377 1.149,-1.45 2.195,-2.985 3.144,-4.58 -0.003,-0.096 -0.003,-0.197 -0.014,-0.293 -0.078,-0.483 -0.823,-0.393 -1.135,-0.813 -0.189,-0.241 -0.27,-0.649 -0.214,-0.959 0.101,-0.639 0.848,-0.605 1.306,-0.845 1.093,-0.547 2.081,-1.349 2.782,-2.392 0.64,-1.52 1.158,-3.094 1.618,-4.698 -0.029,-0.015 -0.06,-0.033 -0.09,-0.05 -1.195,-0.625 -1.345,-2.238 -2.104,-3.089 -0.513,-0.594 -1.12,-0.886 -1.839,-0.845 -0.093,0 -0.367,0.124 -0.402,0.353 0,0.359 -0.125,0.715 0.138,0.993 0.24,0.203 0.522,0.35 0.69,0.634 0.333,0.541 0.075,1.176 -0.043,1.677 -0.305,1.085 -1.443,1.739 -2.491,1.557 -1.05,-0.208 -1.662,-1.303 -2.25,-2.255 0,0 -0.213,-0.027 -0.213,0 -0.4,0.489 -0.924,0.749 -1.2,1.274 -0.066,0.049 -0.066,0.167 0,0.269 0.42,-0.22 0.8,-0.845 1.237,-0.591 0.437,0.246 0.055,0.825 -0.266,0.944 -0.371,0.124 -0.722,0.492 -1.19,0.443 -0.325,-0.026 -0.721,0.455 -0.829,0.851 -0.132,0.591 -0.182,1.361 -0.688,1.517 -0.545,0.22 -1.046,0.246 -1.569,0.623 -0.249,0.127 -0.545,-0.096 -0.783,-0.078 0.171,0.165 0.03,0.552 0.117,0.552 0.642,0.061 1.45,0.061 1.048,0.797 -0.168,0.35 -0.522,0.701 -0.927,0.402 -0.121,-0.052 -0.362,-0.052 -0.423,-0.231 -0.084,-0.116 -0.112,-0.29 -0.182,-0.4 -0.11,-0.275 0.199,-0.787 0,-0.955 -0.228,-0.157 -0.527,-0.223 -0.828,-0.31 -1.04,1.685 -2.241,3.26 -3.585,4.699 l 8.672,8.677 c 0.712,-0.744 1.416,-1.488 2.067,-2.282 m 11.63,-25.678 c -0.06,2.566 -0.315,5.081 -0.793,7.516 0.31,0.791 0.594,1.596 0.837,2.45 0.087,0.544 -0.104,1.288 -0.813,1.355 -0.342,0.052 -0.464,-0.052 -0.573,-0.243 -0.087,-0.304 0.002,-0.655 -0.076,-0.985 -0.226,0.88 -0.458,1.761 -0.738,2.621 0.243,0.523 0.13,1.204 -0.215,1.612 -0.292,0.292 -0.57,0.672 -0.57,0.99 -0.041,1.355 -0.441,2.626 -1.173,3.79 -0.373,0.53 -0.926,0.875 -1.393,1.292 -0.132,0.243 -0.292,0.477 -0.431,0.717 0.003,0.032 -0.014,0.067 0.003,0.099 0.165,0.31 0.51,0.521 0.576,0.9 0.067,0.701 -0.718,0.956 -0.895,1.633 0,0.032 -0.225,0 -0.361,0 l 0.385,-0.11 c -0.414,0.171 -0.883,0.163 -1.222,-0.023 -0.347,0.507 -0.729,0.979 -1.092,1.474 0.348,0.527 -0.107,1.34 -0.579,1.85 -0.428,0.408 -0.741,1.077 -1.418,1.245 -0.154,0.014 -0.299,0 -0.414,-0.09 -0.31,0.353 -0.626,0.698 -0.944,1.037 0.047,0.234 0.072,0.475 0.078,0.706 l 2.595,2.594 c 0.184,-0.15 0.332,-0.33 0.561,-0.443 0.191,-0.098 0.232,-0.634 0.408,-1.021 0.087,-0.212 0.31,-0.499 0.646,-0.273 0.188,0.128 0.096,0.539 0.414,0.66 0.261,0.096 0.544,-0.078 0.706,-0.223 0.759,-0.941 0.944,-2.892 2.493,-2.77 -0.032,-0.235 0.139,-0.406 0.289,-0.47 0.327,-0.095 0.545,0.348 0.768,-0.051 0.243,-0.357 0.371,-0.806 0.712,-0.991 0.527,-0.165 1.106,0.044 1.644,-0.095 0.345,-0.093 0.629,-0.513 0.872,-0.849 0.151,-0.237 0.342,-0.5 0.55,-0.729 1.048,-1.022 1.445,-2.554 2.71,-3.333 0.385,-0.257 0.75,-0.747 1.312,-0.602 0.171,0 0.051,0.255 0.217,0.284 0.524,0.061 0.831,0.495 1.048,0.811 0.093,0.124 0.235,0.234 0.347,0.359 3.243,-6.909 5.113,-14.587 5.278,-22.694 z m -9.253,4.285 c 0.064,0.223 0.463,0.411 0.698,0.411 1.173,0.026 2.441,-0.292 3.532,0.423 0.275,0.243 0.31,0.597 0.48,0.814 0.482,0.698 1.072,1.311 1.509,1.997 0.044,-0.188 0.102,-0.373 0.139,-0.564 -0.79,-1.297 -1.418,-2.617 -0.703,-4.114 0,-0.038 0.182,-0.038 0.222,0 0.4,0.277 0.699,0.61 0.965,0.961 0.176,-1.381 0.28,-2.788 0.316,-4.213 h -9.422 c 0.029,0.174 0.078,0.339 0.182,0.504 0.232,0.342 0.73,0.504 1.02,0.75 0.358,0.295 1.013,0.515 1.013,0.993 0,0.649 -0.07,1.352 0.049,2.038 m -7.339,-28.304 c 0.11,0.182 0.425,0.371 0.503,0.59 0.154,0.603 0.067,1.234 0.067,1.828 0.342,-0.026 0.614,0.353 0.518,0.509 -0.084,0.093 -0.116,0.244 -0.17,0.342 -0.006,0.347 0.054,0.724 0.132,1.103 0.189,0.892 -0.078,1.769 -0.442,2.525 -0.183,0.411 -0.722,0.506 -1.152,0.411 -0.125,-0.093 -0.174,-0.319 -0.308,-0.411 -0.442,-0.029 -0.808,-0.229 -1.07,-0.44 -0.363,-0.287 -0.351,-0.918 -0.663,-1.176 -0.537,-0.461 -1.069,-0.932 -1.776,-1.204 -0.054,-0.027 -0.115,-0.024 -0.171,-0.035 0.861,1.042 1.622,2.166 2.334,3.315 0.214,0.032 0.429,0.038 0.625,0.008 0.279,-0.057 0.504,0.339 0.805,0.504 0.224,0.111 0.218,0.568 0.305,0.82 0.144,0.478 0.663,0.724 0.888,1.138 0.493,0.883 0.487,2.212 1.202,2.907 0.483,0.37 0.234,-0.641 0.416,-0.854 0.302,-0.415 1.141,-0.377 1.434,-0.067 0.252,0.252 -0.029,0.883 0.423,1.138 0.196,0.037 0.428,0.037 0.604,0 0.328,-0.217 0.727,-0.6 1.078,-0.382 0.252,0.165 0.506,0.512 0.767,0.596 0.405,0.133 0.871,0 1.297,0.191 1.025,0.472 3.176,-0.191 3.055,0.805 -0.186,1.604 -1.491,2.872 -2.899,3.613 -1.129,0.539 -0.703,2.111 -1.714,3 -0.254,0.193 -0.122,0.596 -0.341,0.845 -0.076,0.078 -0.22,0.209 -0.373,0.284 -0.009,0.006 -0.018,0.014 -0.027,0.02 h 9.15 c -0.282,-10.771 -4.595,-20.513 -11.497,-27.815 -0.015,0.469 0.097,0.932 0.025,1.381 -0.112,1.358 -0.112,2.609 -0.732,3.839 -0.142,0.383 -0.49,0.672 -0.97,0.542 -0.235,-0.041 -0.206,-0.345 -0.351,-0.542 -0.162,-0.182 -0.199,-0.443 -0.277,-0.784 -0.192,-0.446 -0.809,-0.591 -0.962,-1.069 -0.028,-0.087 -0.064,-0.144 -0.087,-0.231 l -0.532,0.53 c 0.269,0.324 0.579,0.593 0.738,0.955 0.148,0.341 -0.066,0.886 0.148,1.271 m 3.448,-20.623 c -0.04,0.472 -0.535,0.952 -0.475,1.421 0.035,0.345 0.622,0.345 0.756,0.632 0.286,0.668 0.562,1.361 0.903,1.992 0.061,0.118 0.304,0.185 0.501,0.307 0.304,0.228 0.04,0.567 0.098,0.888 -0.246,0.067 -0.361,0.342 -0.466,0.504 -0.703,0.996 -1.357,1.951 -2.524,2.427 -0.279,0.092 -0.304,0.402 -0.438,0.633 -0.113,0.087 0.041,0.403 -0.069,0.504 -0.298,0.18 -0.191,0.469 -0.27,0.689 h 0.273 c -0.003,-0.095 -0.11,-0.156 -0.194,-0.121 0.078,0 0.191,-0.035 0.194,0 0.066,0.026 0,0.148 0,0.148 -0.11,0 -0.156,0.092 -0.156,0.135 0.066,0.174 0.165,0.333 0.257,0.501 0.359,0.324 0.721,0.643 1.069,0.976 l 5.13,-5.122 c 0.087,-0.756 0.42,-1.433 1.251,-1.934 0.287,-0.185 0.585,-0.231 0.88,-0.2 l 1.028,-1.022 c -2.441,-2.351 -5.093,-4.484 -7.931,-6.363 0.062,0.176 0.128,0.353 0.143,0.527 0.069,0.813 0.103,1.659 0.04,2.478 m 6.697,12.082 c -0.252,0.075 -0.732,0.075 -0.732,0 -0.209,-0.912 -0.652,-1.949 -0.994,-2.979 l -4.021,4.015 c 7.339,7.699 11.923,18.024 12.194,29.428 h 11.749 c -0.295,-14.639 -6.192,-27.89 -15.654,-37.699 l -0.768,0.767 c 0.105,0.168 0.189,0.333 0.22,0.469 0.455,1.859 0.249,4.893 -1.994,5.999 M 57.891,-93.159 c 0.536,-0.376 1.283,-0.622 2.021,-0.686 0.217,0 0.246,-0.53 0.429,-0.747 0.22,-0.281 0.121,-0.724 0.385,-0.944 0.362,-0.35 0.683,-0.602 0.657,-1.114 0,-0.591 -0.736,-1.13 -0.295,-1.912 0.116,-0.249 -0.046,-0.665 0.084,-0.822 0.943,-0.949 1.841,-1.826 2.999,-2.678 0.104,-0.107 0.313,-0.24 0.22,-0.472 0.443,-0.133 0.501,-0.573 0.794,-0.819 0.052,-0.066 0.052,-0.156 0.075,-0.237 -4.233,-1.118 -8.669,-1.743 -13.235,-1.836 v 11.729 c 1.996,0.046 3.95,0.237 5.866,0.538 m -1.928,2.814 c 0.275,-0.078 0.304,-0.538 0.478,-0.903 -1.454,-0.188 -2.924,-0.31 -4.416,-0.344 v 1.61 c 1.355,-0.108 2.719,0.219 3.938,-0.363 m -0.067,24.94 c -0.081,-0.165 -0.167,-0.303 -0.376,-0.318 -0.217,-0.017 -0.443,0 -0.663,0.052 0.351,0.081 0.701,0.159 1.039,0.266 m 0.626,2.777 c 0.069,-0.081 0.11,-0.177 0.153,-0.275 -0.298,-0.122 -0.605,-0.229 -0.912,-0.336 0.024,0.098 0.032,0.209 0.067,0.293 0.156,0.529 -0.42,0.903 -0.527,1.406 -0.133,0.478 0.107,0.893 0.379,1.211 0.186,0.182 0.492,-0.041 0.608,-0.318 0.102,-0.284 0.102,-0.666 0.214,-0.985 0.07,-0.345 -0.173,-0.759 0.018,-0.996 m -4.497,-4.262 v 0.796 c 0.197,0.012 0.403,0.012 0.597,0.029 -0.203,-0.269 -0.394,-0.547 -0.597,-0.825 m 1.445,-4.444 c 0.267,0.22 0.669,0.44 1.057,0.313 0.307,-0.093 0.562,-0.278 0.883,-0.415 0.304,-0.153 0.553,-0.353 0.851,-0.529 0.07,-0.067 0.313,-0.151 0.458,-0.221 0.524,-0.225 0.837,-0.877 1.415,-1.195 0.165,-0.096 0.044,0.214 0.215,0.095 0.02,0.53 -0.084,1.04 -0.336,1.349 -0.345,0.501 -0.909,0.765 -1.294,1.17 -0.145,0.128 -0.145,0.498 0.066,0.713 0.047,0.098 0.237,0.098 0.249,0 0.307,-0.276 0.623,-0.276 0.933,-0.432 0.637,-0.281 0.518,-1.233 1.132,-1.546 0.336,-0.176 0.506,-0.666 0.894,-0.724 0.469,-0.156 1.211,0 1.463,0.548 0.205,0.33 -0.18,0.52 -0.414,0.747 -0.455,0.347 0.234,0.503 0.454,0.778 0.408,0.49 0,0.898 -0.04,1.364 -0.047,0.203 0.092,0.319 0.205,0.408 0.006,0 0.029,0.058 0.092,0.096 0.273,0.573 0.018,1.201 0.241,1.763 0.084,0.122 0.235,0.104 0.235,0.064 0.165,-0.275 0.48,-0.472 0.772,-0.38 0.455,0.122 0.829,0.351 1.156,0.773 0.396,0.525 1.256,0.238 1.468,-0.269 0.089,-0.382 -0.041,-0.909 -0.336,-1.008 -1.014,-0.153 -1.833,-0.524 -2.58,-1.039 -0.098,-0.089 -0.223,-0.156 -0.287,-0.275 -0.396,-0.295 -0.564,-0.599 -0.344,-1.228 0.037,-0.225 -0.272,-0.48 -0.493,-0.7 0.38,-0.133 0.38,-0.605 0.728,-0.675 0.633,-0.148 1.233,-0.176 1.679,0.258 0.112,0.162 0.231,0.51 0.165,0.799 0.414,0.049 0.692,0.437 1.132,0.539 0.88,0.139 1.387,-0.828 1.152,-1.596 -0.044,-0.148 -0.272,-0.148 -0.341,-0.205 -0.316,-0.504 -0.591,-0.985 -0.962,-1.346 -0.263,-0.157 -0.521,-0.327 -0.784,-0.478 -1.072,-0.446 -2.299,-0.391 -3.211,-0.921 -0.264,-0.179 -0.412,-0.556 -0.666,-0.819 -0.403,-0.151 -0.802,-0.322 -1.219,-0.449 -0.266,-0.029 -0.533,0 -0.773,0.2 v -0.108 c 0,-0.367 -1.144,-0.118 -1.7,0.108 -0.177,0.057 -0.066,0.605 -0.304,0.816 -0.191,0.128 -0.567,-0.061 -0.651,0.162 -0.116,0.116 0,0.4 -0.148,0.434 -1.239,0.212 -2.397,-0.136 -3.657,-0.04 v 1.937 c 0.438,0.426 0.91,0.819 1.445,1.164 m -1.445,-49.312 v 13.112 c 5.024,0.087 9.885,0.811 14.517,2.094 0.084,-0.079 0.153,-0.171 0.24,-0.252 0.588,-0.53 1.39,-0.412 2.103,-0.562 0.153,-0.101 0.35,-0.226 0.538,-0.289 0.666,-0.209 1.385,-0.279 1.96,0.168 0.327,0.271 0.62,0.784 0.932,0.972 0.504,0.414 1.275,0.385 1.96,0.507 0.131,0.032 0.33,0.095 0.426,0.272 0.081,0.391 0.444,0.602 0.411,0.99 0.516,0.026 0.909,0.281 1.326,0.501 0.829,0.437 1.462,1.271 2.258,1.957 0.777,0.73 2.106,0.4 2.532,1.228 0.15,0.292 0.159,0.622 0.144,0.964 3.572,2.2 6.888,4.783 9.896,7.681 l 9.251,-9.236 c -12.575,-12.209 -29.636,-19.809 -48.494,-20.107 m -2.105,51.758 c -0.367,-0.043 -0.801,0.139 -0.923,-0.228 -0.22,-0.484 0.475,-0.805 0.707,-1.298 0.129,-0.318 0.04,-0.7 -0.403,-0.758 -0.652,-0.162 -1.225,-0.075 -1.911,0.032 0,-0.194 -0.171,-0.159 -0.171,-0.229 -0.115,-0.568 0,-1.042 -0.446,-1.543 -0.286,-0.374 0.145,-0.822 0.394,-1.132 0.287,-0.385 0.4,-0.915 0.762,-1.008 0.283,-0.072 0.521,-0.324 0.784,-0.283 0.553,0.133 0.941,0.344 1.156,0.94 0.008,0.032 0.034,0.029 0.051,0.05 v -1.483 c -0.356,-0.165 -0.732,-0.266 -1.137,-0.115 -0.548,-0.183 -1.069,-0.252 -1.564,-0.339 -0.414,-0.081 -0.735,-0.293 -1.045,-0.545 -5.353,0.947 -10.159,3.429 -13.987,6.973 l 7.849,7.837 c 2.377,-2.082 5.342,-3.489 8.619,-3.949 -0.527,-0.325 -0.868,-0.759 -0.969,-1.402 0.283,0 0.561,-0.092 0.807,0 0.611,0.273 0.437,0.823 0.443,1.358 0.301,-0.037 0.608,-0.06 0.918,-0.081 -0.075,-0.237 -0.208,-0.474 -0.15,-0.741 -0.117,-0.116 -0.276,-0.315 -0.504,-0.663 -0.05,-0.052 -0.243,-0.408 -0.151,-0.559 0.223,-0.272 0.568,0.012 0.871,0.229 z m 0,-22.704 c -10.81,0.292 -20.596,4.626 -27.91,11.566 l 8.68,8.669 c 3.495,-3.257 7.765,-5.672 12.514,-6.957 -0.854,-0.279 -1.628,-1.344 -2.122,-2.279 -0.145,-0.261 0.043,-0.634 -0.111,-0.854 -0.471,-0.727 -0.715,-1.451 -1.355,-2.05 -0.069,-0.064 -0.069,-0.255 -0.043,-0.377 0.718,-0.981 1.572,-1.641 2.293,-2.654 0.179,-0.27 0.544,-0.27 0.652,-0.539 0.28,-0.631 0.671,-1.193 1.001,-1.792 0.472,-0.846 1.7,-1.173 2.748,-0.846 0.385,0.113 0.837,-0.257 1.187,-0.327 0.814,-0.075 1.656,-0.211 2.466,-0.113 z m 0,-13.834 c -14.641,0.301 -27.881,6.19 -37.688,15.64 l 1.02,1.008 c 0.637,-0.098 1.031,-0.652 1.65,-0.767 0.507,-0.16 0.924,-0.281 1.381,-0.565 0.159,-0.101 0.411,-0.101 0.588,-0.029 0.295,0.107 0.547,0.238 0.782,0.403 0.654,0.405 1.491,0.437 2.162,0.877 0.137,0.101 0.275,0.289 0.461,0.353 1.094,0.469 2.31,-0.414 3.448,0.182 0.281,0.125 0.66,0.125 0.99,0.357 0.692,0.474 0.895,1.439 0.669,2.194 -0.038,0.107 -0.078,0.209 -0.119,0.313 6.984,-5 15.467,-8.014 24.656,-8.234 z m 0,-15.22 c -18.839,0.303 -35.883,7.898 -48.449,20.099 l 9.256,9.25 c 10.194,-9.835 23.973,-15.968 39.193,-16.237 z M 6.798,-50.592 c 0.038,-1.688 0.182,-3.353 0.409,-4.992 -0.331,0.018 -0.643,0.015 -0.924,-0.078 -0.895,-0.237 -0.961,-1.271 -1.358,-1.989 -0.281,-0.631 -1.312,-0.472 -1.601,-1.077 -0.151,-0.255 0.139,-0.695 -0.09,-1.065 -0.159,-0.249 -0.504,-0.249 -0.596,-0.536 -0.058,-0.159 -0.102,-0.385 -0.194,-0.536 -0.232,-0.828 -0.385,-1.575 -0.194,-2.4 0.011,-0.229 0.011,-0.478 0.084,-0.634 0.202,-0.857 -0.073,-1.604 -0.446,-2.305 -0.556,-0.813 -1.546,-0.813 -2.447,-1.091 -0.376,-0.165 -0.837,0.226 -1.297,0.124 -0.061,-0.008 -0.119,-0.003 -0.182,-0.008 -1.743,5.225 -2.731,10.796 -2.846,16.587 z m 12.224,31.555 C 11.659,-26.735 7.064,-37.074 6.798,-48.508 H -4.884 c 0.295,14.671 6.187,27.928 15.64,37.746 z m 1.482,1.477 -8.272,8.277 C 22.036,0.168 35.279,6.057 49.92,6.355 V -5.377 C 38.522,-5.655 28.2,-10.229 20.504,-17.56 m 10.172,-10.174 -8.672,8.677 c 7.311,6.952 17.1,11.294 27.916,11.59 v -12.288 c -7.435,-0.257 -14.16,-3.24 -19.244,-7.979 m 4.227,-9.52 c -0.611,0.119 -0.73,-0.408 -1.049,-0.825 -0.02,0.081 -0.06,0.157 -0.17,0.127 -0.04,0.316 0.15,0.562 0.078,0.887 -0.032,0.246 -0.431,0.213 -0.53,0.422 -1.022,1.923 -3.492,1.685 -5.365,1.367 -0.35,-0.032 -0.492,-0.397 -0.718,-0.611 -0.104,-0.093 -0.223,-0.131 -0.344,-0.145 1.086,1.931 2.397,3.706 3.888,5.316 l 6.705,-6.714 c -0.819,-0.154 -1.641,-0.055 -2.495,0.176 m -1.506,-14.45 c 0.411,0.252 0.759,0.556 1.025,0.921 0.026,-0.363 0.064,-0.718 0.116,-1.077 -0.252,-0.29 -0.53,-0.557 -0.866,-0.429 -0.185,0.081 -0.478,0.483 -0.275,0.585 m -9.583,-3.307 c 0.298,-0.052 0.593,-0.101 0.947,-0.153 0.399,-0.098 0.692,-0.562 1.163,-0.628 0.345,-0.058 0.727,-0.238 1.109,0.217 0.119,0.156 0.484,0 0.522,-0.096 0.092,-0.359 0.312,-0.359 0.541,-0.48 0.573,-0.278 0.379,-1.726 1.138,-1.254 0.396,0.258 0.744,-0.026 1.199,0.067 -0.455,-0.614 -0.221,-1.234 0.222,-1.674 0.348,-0.434 0.854,-0.631 1.283,-1.03 0.336,-0.392 0.869,-0.287 0.923,0.249 0.085,0.564 -0.532,1.221 0.201,1.722 0.7,-0.999 -0.201,-2.235 0.529,-3.144 0.053,-0.098 0.093,-0.133 0.139,-0.22 0.327,-0.414 0.611,-0.854 1.054,-0.796 0.316,0.101 0.455,0.414 0.617,0.758 0.008,0.125 0.049,0.258 0.092,0.278 0.049,0.33 0.183,0.548 0.27,0.825 0.162,0.437 0.709,0.794 0.613,1.3 0,0.159 -0.04,0.371 -0.04,0.498 0.015,0.261 0.147,0.461 0.318,0.634 0.548,-0.929 1.184,-1.798 1.891,-2.6 l -7.843,-7.831 c -3.414,3.674 -5.857,8.257 -6.888,13.358 m -2.502,8.51 c -0.072,-0.661 -0.083,-1.335 -0.107,-2.007 h -2.249 c -0.05,0.087 -0.099,0.177 -0.148,0.255 -0.339,0.498 -1.123,0.249 -1.344,0.785 -0.11,0.28 -0.11,0.576 0,0.819 0.174,0.388 0.504,0.735 0.91,0.923 0.883,0.345 1.716,0.081 2.472,-0.347 0.168,-0.093 0.321,-0.258 0.466,-0.428 m -0.376,8.263 c 0.203,-0.596 -0.09,-1.274 -0.66,-1.509 -0.649,-0.226 -1.376,-0.176 -2.009,-0.428 -0.313,-0.119 -0.722,-0.417 -0.849,-0.701 -1.01,-1.801 -1.983,-3.66 -2.056,-5.729 v -0.229 c 0,-0.125 0.221,-0.261 0.221,-0.307 -0.238,-0.507 -0.455,-0.947 -0.666,-1.367 H 8.9 c 0.287,10.855 4.647,20.653 11.616,27.968 l 8.677,-8.676 c -1.971,-2.12 -3.633,-4.517 -4.936,-7.14 -0.174,0.032 -0.351,0.04 -0.504,-0.052 -0.333,-0.284 -0.727,-0.324 -1.071,-0.478 -0.113,-0.098 -0.113,-0.362 -0.154,-0.582 0,-0.168 -0.289,-0.122 -0.382,-0.122 -0.524,-0.167 -1.3,0.102 -1.401,-0.648 z M 11.827,-87.221 10.748,-88.3 c -0.386,0.402 -0.774,0.796 -1.15,1.207 0.052,0.006 0.104,0.011 0.153,0.026 0.336,0.139 0.362,0.764 0.727,0.79 0.617,0.099 0.866,-0.648 1.349,-0.944 m 0.741,31.275 c 0.429,-0.353 -0.234,-1.187 -0.854,-1.236 -0.787,-0.032 -1.838,0.165 -2.125,1.016 -0.037,0.096 -0.104,0.171 -0.196,0.229 -0.27,1.754 -0.446,3.529 -0.496,5.345 h 4.896 c -0.313,-0.548 -0.643,-1.127 -1.036,-1.822 -0.475,-0.825 -1.043,-2.848 -0.189,-3.532 m 6.848,-19.838 c 0.252,0.252 0.182,0.695 0.101,0.955 0,0.09 -0.101,0.304 -0.353,0.304 0.049,0.6 0.402,1.068 0.049,1.613 -0.385,0.501 -0.906,0.796 -1.042,1.451 0,0.057 -0.316,0.214 -0.316,0.321 0,0.726 0.223,1.54 0.076,2.287 -0.11,0.319 -0.467,0.698 -0.194,0.892 0.118,0.089 0.393,0.29 0.637,0.347 0.515,0.186 0.688,0.545 0.434,0.889 -0.264,0.368 -0.782,0 -1.17,0.13 -0.174,0.05 -0.202,0.171 -0.22,0.333 -0.092,0.313 0.22,0.788 -0.064,0.95 -0.237,0.093 -0.454,0.313 -0.561,0.469 -0.241,0.382 -0.041,0.814 0.243,1.196 -0.165,-0.029 -0.093,0.287 -0.284,0.191 -0.058,0.385 0.238,0.828 0.07,1.167 -0.128,0.347 -0.414,0.79 -0.848,0.596 -0.041,0 0,-0.124 -0.041,-0.124 -0.244,-0.226 -0.524,-0.284 -0.77,-0.061 -0.047,0.061 -0.047,0.281 0,0.443 0.176,0.22 0.526,0.122 0.715,0.287 0.35,0.361 0.055,0.842 -0.119,1.039 -0.535,0.466 -0.761,0.88 -0.643,1.537 -0.614,0.084 -1.549,0.162 -1.502,1.019 0.037,0.753 -0.139,1.454 -0.319,2.218 -0.15,0.536 -0.121,1.092 0.223,1.48 0.096,0.113 0.203,0.33 0.365,0.344 0.793,0.113 1.755,-0.052 2.198,0.686 0.289,0.536 -0.322,1.364 0.147,1.715 0.626,0.471 1.48,0.347 2.291,0.518 h 2.686 c 0.032,-0.953 0.107,-1.894 0.226,-2.826 -0.391,-0.096 -0.489,0.249 -1.109,0.13 -0.37,-0.041 -0.654,0.067 -0.616,-0.275 0.034,-0.206 0.318,-0.651 0.509,-0.715 0.53,-0.133 0.975,-0.241 1.398,-0.327 1.002,-5.849 3.703,-11.103 7.586,-15.267 l -8.5,-8.486 c -0.009,0.113 -0.151,0.209 -0.177,0.209 -0.156,0.034 -0.307,0.072 -0.46,0.118 -0.394,0.42 -0.791,0.837 -1.165,1.271 0.192,0.104 0.354,0.24 0.562,0.319 -0.173,0.217 -0.185,0.567 -0.043,0.657 m 26.506,43.174 c -0.616,-0.301 -0.895,-0.964 -1.511,-1.28 -0.076,-0.075 -0.076,-0.188 -0.029,-0.292 0.012,-0.026 0.04,-0.058 0.064,-0.089 -1.628,-0.698 -3.113,-1.66 -4.427,-2.818 l -7.847,7.855 c 4.7,4.366 10.895,7.111 17.748,7.389 V -32.98 c -1.346,-0.09 -2.66,-0.319 -3.905,-0.709 -0.012,0.193 -0.006,0.39 0.035,0.552 0,0.104 0.057,0.157 0.138,0.125 0.174,-0.021 0.203,0.208 0.238,0.402 -0.159,0 -0.362,0.021 -0.504,0 m -66.05,-17.982 h 13.139 c 0.101,-5.765 1.031,-11.329 2.701,-16.57 -0.191,-0.017 -0.382,-0.038 -0.57,-0.101 -0.067,-0.032 -0.255,-0.165 -0.333,-0.232 -0.498,-0.212 -0.681,0.356 -0.961,0.602 -0.305,0.298 -0.336,0.823 -0.646,0.979 -0.585,0.284 -1.404,-0.035 -1.824,-0.631 0.275,0.031 -0.003,-0.319 0.211,-0.319 -0.645,-0.029 -1.146,-0.596 -1.644,-0.843 -0.66,-0.347 -0.811,0.814 -0.875,1.503 -0.06,0.345 -0.625,0.574 -1.117,0.319 -0.09,-0.098 -0.194,-0.185 -0.194,-0.377 -0.151,0 -0.275,0.192 -0.42,0.058 -0.44,-0.492 0.339,-0.442 0.57,-0.726 0.157,-0.139 -0.037,-0.316 -0.205,-0.438 -0.22,-0.179 -0.568,0.197 -0.605,0 -0.099,-0.339 -0.304,-0.504 -0.574,-0.405 0,-0.099 -0.031,-0.13 0,-0.188 0,-0.093 0.073,-0.162 0.168,-0.093 -0.246,-0.101 -0.498,-0.263 -0.686,-0.124 -0.234,0.124 -0.156,0.507 -0.234,0.81 -0.052,0.073 -0.304,0 -0.304,-0.092 -0.084,-0.501 0.046,-0.663 -0.495,-0.695 0.063,-0.191 -0.142,-0.507 0.124,-0.553 0.287,-0.145 0.623,0.174 0.872,0 0.411,-0.408 0.353,-1.048 0.477,-1.622 0,-0.031 -0.124,-0.084 -0.179,-0.084 0.113,-0.289 0.179,-1.047 -0.264,-0.726 -0.521,0.307 0.09,1.062 -0.217,1.54 -0.066,0.093 -0.376,0.041 -0.631,0.041 0.313,-0.771 -0.362,-1.581 0.313,-2.319 0.252,-0.33 -0.797,-0.779 -0.414,-1.185 0.228,-0.223 0.622,-0.448 0.952,-0.518 0.188,-0.02 -0.003,0.382 0.064,0.518 0.055,0.183 0.605,0.365 0.724,0.116 0.063,-0.168 0.139,-0.379 0.139,-0.634 -0.258,0.07 -0.524,-0.061 -0.739,-0.153 0.215,-0.501 -0.101,-0.84 -0.188,-1.318 0,-0.098 0.157,-0.283 0.188,-0.411 0.128,-0.379 0.75,-0.037 0.941,-0.344 0.151,-0.246 -0.278,-0.536 -0.136,-0.883 0.099,-0.218 0.469,-0.084 0.631,-0.281 0.232,-0.139 0.151,-0.443 0.128,-0.727 0.232,0.029 0.596,-0.226 0.495,-0.535 0.278,-0.105 0.339,0.216 0.318,0.399 0.608,-0.023 0.36,0.57 0.426,1.06 -0.208,-0.11 -0.182,0.333 -0.426,0.15 -0.127,0.342 0.021,0.709 -0.118,1.008 -0.174,0.345 -0.672,0.414 -0.75,0.877 0.431,-0.09 0.741,0.058 1.013,0.504 0.151,0.232 0.524,-0.096 0.669,-0.406 0.09,-0.072 0.029,-0.165 0.029,-0.292 0.385,0.127 0.385,-0.269 0.53,-0.443 0.321,-0.211 0.414,-0.596 0.773,-0.75 0.547,-0.156 1.08,-0.156 1.636,-0.063 -0.049,0.26 0,0.509 0.139,0.602 0.24,0.211 0.37,-0.255 0.666,-0.287 -0.134,-0.524 0.147,-0.976 0.579,-1.236 0.11,-0.023 0.295,0.043 0.39,-0.023 0.183,-0.131 0.244,-0.409 0.504,-0.501 0.177,-0.035 0.359,0.092 0.51,0.058 0.278,-0.058 0.278,-0.281 0.321,-0.573 0.038,-0.021 0.185,-0.117 0.185,-0.215 0.507,0.098 1.066,-0.032 1.214,-0.475 0.255,-0.657 0.723,-1.163 1.007,-1.754 0.119,-0.299 0.64,-0.4 0.71,-0.663 0.025,-0.223 0.179,-0.368 0.26,-0.411 0.339,-0.385 0.834,-0.507 1.332,-0.637 0.171,-0.064 0.463,0.283 0.765,0.419 0.164,0.05 0.344,-0.107 0.373,-0.136 0.46,-0.767 0.579,-1.8 1.329,-2.238 0.388,-0.22 0.498,-0.686 0.9,-0.787 0.237,-0.064 0.539,0.191 0.776,0 0.159,-0.125 0.208,-0.449 0.33,-0.469 0.55,-0.258 0.984,-0.6 1.103,-1.202 0.024,-0.081 0.079,-0.281 0.229,-0.312 0.249,-0.035 0.475,0.037 0.674,0.081 0.829,-0.979 1.697,-1.934 2.589,-2.858 l -9.259,-9.251 c -12.204,12.566 -19.804,29.614 -20.108,48.465 m 71.111,-72.188 c 40.448,0 73.245,32.774 73.247,73.227 -0.002,40.45 -32.799,73.28 -73.247,73.285 -40.441,-0.005 -73.227,-32.835 -73.227,-73.285 0,-40.453 32.786,-73.227 73.227,-73.227 M -26.388,-8.298 c 0,0 1.946,1.92 7.106,5.293 5.153,3.338 11.977,17.443 11.977,17.443 C -27.117,6.783 -26.388,-8.298 -26.388,-8.298 m -1.409,-11.879 c 3.491,2.122 14.343,12.837 16.329,21.219 0,0 -0.721,0.927 -4.201,-3.636 -2.649,-3.504 -5.46,-1.79 -13.365,-11.86 0,0 -1.123,-2.249 -1.682,-2.067 -0.588,0.096 0.269,2.349 0.269,2.349 0,0 1.558,6.253 1.665,8.52 0.131,2.238 3.359,14.069 4.476,15.609 0,0 -10.764,-6.121 -12.258,-23.417 0,0 0.397,-12.548 0.958,-13.275 0,0 4.302,4.467 7.809,6.558 m -12.016,-31.629 c 0,0 2.383,5.545 4.068,7.395 1.691,1.778 13.22,18.675 14.23,26.356 0,0 -1.01,0.513 -2.113,-1.407 -1.115,-1.984 -6.685,-7.522 -7.676,-8.376 -0.984,-0.854 -6.803,-7.12 -7.408,-13.799 0,0 -0.51,-0.704 0.605,10.46 1.082,11.15 -3.631,18.371 0.286,26.214 0,0 -5.46,-0.845 -8.408,-23.729 0,0 0.148,-8.084 4.332,-17.992 0,0 1.407,-5.122 2.084,-5.122 m 5.035,-16.317 c 1.109,1.998 7.817,14.062 6.41,29.54 0,0 -1.109,0.993 -3.196,-5.011 -2.105,-6.011 -5,-7.801 -6.017,-13.811 -0.975,-5.955 -0.975,-8.48 -0.975,-8.48 0,0 -0.666,-0.84 -0.666,-0.151 0,0.724 -0.736,8.785 -4.059,16.153 -3.336,7.392 -7.823,14.363 -7.401,19.277 0,0 -1.968,-0.16 -1.682,-8.104 0.284,-7.974 2.377,-21.778 16.197,-37.514 0,0 0.277,6.146 1.389,8.101 m 5.029,-26.909 c 0,0 4.603,-5.611 5.157,-5.301 0,0 -0.831,3.477 -0.831,6.401 0,2.959 1.253,12.989 1.253,17.465 0,4.473 -0.422,12.82 -3.9,18.474 0,0 0,-4.986 -1.114,-7.226 -1.129,-2.209 -2.38,-11.124 -2.38,-12.233 0,-1.103 0.26,-8.663 2.241,-12.687 0,0 -1.393,0.808 -2.965,3.729 -1.538,2.973 -5.293,8.393 -10.993,14.097 -5.693,5.718 -6.967,11 -6.967,11 0,0 -1.377,-10.021 5.999,-20.572 7.392,-10.666 10.423,-8.798 14.5,-13.147 m 21.193,-17.152 c -0.399,5.432 -3.766,17.963 -13.234,31.643 0,0 -1.401,-21.628 9.311,-34.879 0,0 0.733,-1.932 -0.663,-0.519 -1.389,1.39 -8.222,9.584 -22.907,19.52 0,0 -7.658,6.28 -8.055,8.35 0,0 5.997,-30.696 38.059,-32.792 0,0 -2.067,3.196 -2.511,8.677 m 25.974,-18.144 c 0,0 -5.585,3.341 -8.558,9.467 -2.91,6.164 -10.58,15.907 -18.258,21.915 0,0 8.643,-27.358 17.604,-28.583 0,0 1.383,-0.848 -1.124,-0.431 -2.516,0.431 -13.961,4.627 -18.012,5.327 -4.033,0.678 -13.935,2.919 -16.604,5.571 -2.215,2.238 -3.77,1.922 -3.77,1.922 0,0 11.02,-18.376 30.852,-18.376 0,0 9.737,0.828 17.87,3.188 M 121.28,-3.005 c 5.159,-3.373 7.1,-5.293 7.1,-5.293 0,0 0.729,15.081 -19.147,22.736 0,0 6.885,-14.105 12.047,-17.443 m 11.154,-11.167 c 0,0 0.833,-2.253 0.295,-2.349 -0.559,-0.182 -1.685,2.067 -1.685,2.067 -7.977,10.07 -10.733,8.356 -13.389,11.86 -3.473,4.563 -4.175,3.636 -4.175,3.636 1.949,-8.382 12.824,-19.097 16.29,-21.219 3.497,-2.091 7.829,-6.558 7.829,-6.558 0.535,0.727 0.993,13.275 0.993,13.275 -1.567,17.296 -12.288,23.417 -12.288,23.417 1.121,-1.54 4.32,-13.371 4.435,-15.609 0.136,-2.267 1.695,-8.52 1.695,-8.52 m 7.669,-17.005 c 1.115,-11.164 0.553,-10.46 0.553,-10.46 -0.553,6.679 -6.399,12.945 -7.389,13.799 -0.97,0.854 -6.546,6.392 -7.678,8.376 -1.124,1.92 -2.076,1.407 -2.076,1.407 0.952,-7.681 12.548,-24.578 14.218,-26.356 1.671,-1.85 4.074,-7.395 4.074,-7.395 0.663,0 2.07,5.122 2.07,5.122 4.189,9.908 4.312,17.992 4.312,17.992 -2.896,22.884 -8.348,23.729 -8.348,23.729 3.909,-7.843 -0.833,-15.064 0.264,-26.214 m 12.559,0.571 c 0.405,-4.914 -4.047,-11.885 -7.371,-19.277 -3.364,-7.368 -4.073,-15.429 -4.073,-16.153 0,-0.689 -0.669,0.151 -0.669,0.151 0,0 0,2.525 -1.002,8.48 -0.955,6.01 -3.938,7.8 -5.999,13.811 -2.091,6.004 -3.188,5.011 -3.188,5.011 -1.383,-15.478 5.249,-27.542 6.416,-29.54 1.118,-1.955 1.358,-8.101 1.358,-8.101 13.819,15.736 15.927,29.54 16.178,37.514 0.311,7.944 -1.65,8.104 -1.65,8.104 m -7.371,-41.707 c -5.744,-5.704 -9.505,-11.124 -11.034,-14.097 -1.528,-2.921 -2.945,-3.729 -2.945,-3.729 1.955,4.024 2.236,11.584 2.236,12.687 0,1.109 -1.251,10.024 -2.371,12.233 -1.118,2.24 -1.118,7.226 -1.118,7.226 -3.452,-5.654 -3.894,-14.001 -3.894,-18.474 0,-4.476 1.26,-14.506 1.26,-17.465 0,-2.924 -0.818,-6.401 -0.818,-6.401 0.525,-0.31 5.143,5.301 5.143,5.301 4.036,4.349 7.099,2.481 14.502,13.147 7.392,10.551 5.988,20.572 5.988,20.572 0,0 -1.251,-5.282 -6.949,-11 m -7.265,-24.106 c -14.69,-9.936 -21.473,-18.13 -22.878,-19.52 -1.386,-1.413 -0.729,0.519 -0.729,0.519 10.765,13.251 9.387,34.879 9.387,34.879 -9.506,-13.68 -12.85,-26.211 -13.287,-31.643 -0.42,-5.481 -2.507,-8.677 -2.507,-8.677 32.091,2.096 38.075,32.792 38.075,32.792 -0.431,-2.07 -8.061,-8.35 -8.061,-8.35 m -8.52,-20.643 c -2.663,-2.652 -12.571,-4.893 -16.587,-5.571 -4.068,-0.7 -15.484,-4.896 -18.006,-5.327 -2.524,-0.417 -1.102,0.431 -1.102,0.431 8.919,1.225 17.587,28.583 17.587,28.583 -7.715,-6.008 -15.367,-15.751 -18.324,-21.915 -2.903,-6.126 -8.479,-9.467 -8.479,-9.467 8.097,-2.36 17.841,-3.188 17.841,-3.188 19.811,0 30.831,18.376 30.831,18.376 0,0 -1.517,0.316 -3.761,-1.922 m -60.271,-14.642 c -6.199,0 -12.426,-1.094 -18.243,-2.878 -5.82,1.784 -12.05,2.878 -18.255,2.878 -19.086,0 -39.764,-11.048 -47.975,-5.205 0,0 8.359,-7.221 25.261,-7.221 16.839,0 23.308,8.506 35.004,8.506 0.814,0 1.625,-0.058 2.441,-0.142 -10.498,-3.839 -19.204,-9.852 -23.104,-15.623 l 3.329,-1.696 c 4.288,6.621 13.571,14.265 23.302,16.674 9.705,-2.409 18.976,-10.053 23.28,-16.674 l 3.35,1.696 c -3.896,5.771 -12.6,11.781 -23.101,15.62 0.822,0.087 1.642,0.145 2.461,0.145 11.708,0 18.127,-8.506 35.004,-8.506 16.862,0 25.221,7.221 25.221,7.221 -8.186,-5.843 -28.849,5.205 -47.975,5.205 m -15.018,88.315 c -0.043,-0.171 -0.043,-0.339 0.101,-0.527 h 0.186 c 0.023,0.104 0,0.226 0.116,0.356 0.127,0.171 -0.061,0.414 -0.174,0.533 -0.162,0.191 -0.527,0 -0.403,-0.362 z m 35.577,21.634 c -0.15,-0.093 -0.066,0.28 -0.188,0.095 0.07,0.249 0.22,0.585 -0.055,0.689 -0.289,0.128 -0.746,-0.153 -0.985,0.353 -0.028,0.064 -0.257,0.064 -0.349,0 -0.075,-0.04 -0.075,-0.132 -0.125,-0.173 -0.168,-0.235 -0.362,-0.408 -0.168,-0.588 0.258,-0.191 0.327,-0.376 0.463,-0.594 0.179,-0.324 0.652,0 0.756,-0.295 0.075,-0.278 0.333,-0.37 0.533,-0.229 0.243,0.11 0.052,0.524 0.118,0.742 m 1.983,-3.591 c 0.255,0.186 -0.006,0.655 -0.52,0.696 -0.218,0.025 -0.203,0.405 -0.159,0.665 -0.137,0 -0.241,0.096 -0.302,0.154 -0.507,0.344 0.432,0.593 0.153,1.036 -0.092,0.093 -0.031,0.298 -0.153,0.322 -0.186,0.086 -0.391,-0.024 -0.466,-0.229 -0.159,-0.197 0.127,-0.44 0.024,-0.68 -0.143,-0.293 -0.71,-0.507 -0.453,-0.69 0.628,-0.362 0.018,-1.028 0.504,-1.239 0.342,-0.226 1.039,-0.353 1.372,-0.035 m 0.834,-1.103 c 0,0.041 -0.156,0 -0.269,0 0.035,0.327 -0.034,0.655 -0.397,0.713 -0.072,-0.507 -0.579,-0.386 -0.847,-0.658 -0.351,-0.272 0.025,-0.723 0.408,-0.874 0.084,0 0.084,-0.145 0.133,-0.145 0.703,-0.295 1.268,0.272 0.972,0.964 m 0.081,-2.744 h 0.215 c 0.324,-0.16 0.324,0.249 0.394,0.411 -0.609,-0.038 -0.501,0.619 -0.467,0.967 -0.052,0 -0.142,0.052 -0.223,0 -0.507,-0.406 0.223,-0.82 0.081,-1.378 m 2.181,-4.175 c -0.078,0.483 -0.368,0.819 -0.437,1.288 -0.114,0.351 0,0.802 -0.052,1.245 -0.062,0.741 -0.861,0.854 -1.477,0.854 -0.296,0 -0.635,0.093 -0.695,-0.223 -0.041,-0.289 -0.041,-0.59 0.177,-0.961 1.155,-1.317 1.062,-3.202 1.563,-4.737 0.174,-0.625 1.245,-0.13 1.433,0.53 0.107,0.345 0.122,0.727 0.055,1.048 -0.156,0.339 -0.478,0.582 -0.567,0.956 M 84.427,-20.27 c 0.072,-0.003 0.115,-0.041 0.185,-0.055 0.02,-0.003 0.037,0 0.055,-0.006 z M 83.926,3.269 c 0.269,-0.255 0.856,0.049 1.135,-0.255 0.287,-0.322 0.501,-0.854 0.99,-0.854 0.312,0 0.547,0.165 0.585,0.448 0.084,0.814 -0.24,1.758 -1.04,2.12 -0.758,0.229 -1.546,0.229 -2.299,0.208 -0.494,0 -0.494,-0.57 -0.292,-0.787 0.249,-0.298 0.573,-0.573 0.921,-0.88 m -17.67,12.545 c 0.185,-0.316 0.48,-0.564 0.837,-0.316 -0.041,0 -0.119,0.041 -0.119,0.099 0,0.02 0.078,0.055 0.119,0.084 -0.258,0.272 -0.542,0.066 -0.837,0.133 m 3.497,-24.028 c 0.09,-0.113 0.392,0.104 0.516,0.2 0.075,0 0.035,0.182 0.035,0.292 0.112,-0.041 0.165,0 0.165,0.107 0.097,0.171 0.049,0.386 -0.165,0.467 -0.143,0.04 -0.325,-0.192 -0.49,-0.05 -0.029,0 0.029,0.09 0,0.165 -0.154,0.113 -0.368,0.22 -0.478,0.096 -0.199,-0.171 -0.199,-0.475 -0.101,-0.663 0.101,-0.203 0.307,-0.414 0.518,-0.614 m -0.735,1.401 c 0.217,0.125 0.02,0.284 0,0.406 -0.102,0.278 -0.255,0.532 -0.449,0.356 -0.182,-0.102 -0.318,-0.527 -0.055,-0.692 0.104,-0.07 0.315,-0.177 0.504,-0.07 m -2.14,1.04 h -0.202 c 0.159,-0.102 -0.212,-0.035 -0.105,-0.194 0.298,-0.411 0.831,-0.611 1.196,-0.498 0.182,0.127 0.405,0.498 0.22,0.634 -0.306,0.179 -0.729,0.058 -1.109,0.058 m -0.364,0.677 c 0.006,0.026 -0.006,0.041 -0.035,0.047 -0.226,0.263 -0.623,0.448 -0.84,0.182 -0.264,-0.307 0.301,-0.307 0.461,-0.733 0.069,-0.231 0.297,0.09 0.364,0.374 0,0.017 0.017,0.052 0.032,0.084 0.04,-0.032 0.084,-0.067 0.124,-0.105 -0.022,0.053 -0.066,0.099 -0.106,0.151 m 0.616,0.229 c -0.136,0.101 -0.136,0.174 -0.136,0.324 0.058,0.348 -0.212,0 -0.258,0.145 -0.06,-0.243 0,-0.414 0.142,-0.55 0.116,-0.041 0.215,0 0.252,0.081 m -1.618,0.863 c -0.099,0.176 0.127,0.431 -0.11,0.59 -0.084,0.035 -0.217,0.07 -0.252,0 -0.316,-0.292 -0.032,-0.59 -0.032,-0.906 0.032,-0.078 0.2,-0.159 0.284,-0.064 0.11,0.102 0.182,0.252 0.11,0.472 z m -5.556,6.271 c 0,-0.107 -0.044,-0.362 0.037,-0.391 0.272,-0.127 0.348,-0.345 0.654,-0.539 0.079,-0.014 0.227,-0.014 0.311,0 0.02,0.029 0,0.113 0,0.194 0,0.536 -0.545,0.695 -1.002,0.736 m 1.902,-2.4 c -0.273,-0.125 0.035,-0.539 0.312,-0.759 -0.055,0.345 0.412,1.068 -0.312,0.759 m 2.834,2.038 c -0.521,0.42 -1.062,0.472 -1.679,0.42 0.443,-0.794 1.262,-0.959 2.004,-1.234 0.133,0.403 -0.081,0.597 -0.325,0.814 m -3.37,12.945 c -1.517,-0.956 -3.144,-1.187 -4.621,-1.564 -1.19,-0.281 -4.287,-0.072 -4.432,-1.838 1.65,-0.021 3.491,-0.148 4.516,-1.636 0.151,-0.186 0.738,-0.081 1.127,-0.081 -0.548,1.028 -1.39,1.963 -1.162,3.274 1.549,-0.552 2.948,-0.286 4.494,0.209 1.15,0.321 2.473,-0.235 3.59,0.483 0.139,0.125 0.015,0.51 0.015,0.794 -1.289,-0.597 -2.363,1.106 -3.527,0.359 m 24.086,-43.485 c -0.023,0.055 -0.06,0.102 -0.06,0.229 -0.033,0.058 0.037,0.185 -0.033,0.243 -0.119,0.053 -0.318,0.012 -0.477,0.012 0.223,-0.099 0.223,-0.553 0.57,-0.484 m -1.633,-2.041 c -0.344,-0.489 0.62,-0.489 1.007,-0.283 0.024,0 0,0.124 0,0.193 v -0.101 c 0.024,0.101 0,0.157 -0.09,0.191 -0.361,0.226 -0.807,0.183 -0.917,0 m -6.607,-1.053 c -0.295,0.052 -0.529,-0.108 -0.808,-0.108 0.036,-0.593 0.69,-0.298 1.019,-0.098 -0.211,-0.093 -0.043,0.191 -0.211,0.206 m 3.355,4.021 c 0.383,-0.542 0.846,-0.226 1.378,-0.107 -0.156,-0.206 0.137,-0.177 0.212,-0.235 0.241,-0.171 0.348,0.417 0.591,0.235 0.055,-0.073 0.055,-0.406 0,-0.435 -0.359,-0.182 -0.359,-0.532 -0.666,-0.68 -0.2,-0.142 -0.605,-0.142 -0.782,0.238 -0.028,0.057 -0.199,0 -0.298,0 h 0.099 c -0.151,-0.252 0,-0.71 -0.151,-0.829 -0.611,-0.55 -1.967,-0.972 -1.373,-1.786 0.464,-0.614 1.468,-0.437 2.305,-0.37 0.09,0 0.2,0.15 0.171,0.234 -0.081,0.767 0.336,0.901 0.843,1.286 0.213,0.176 -0.148,0.422 -0.4,0.636 -0.221,0.107 0.009,0.577 0.252,0.577 0.301,0.014 0.301,0.411 0.593,0.321 v 0.513 c 0.478,-0.053 0.898,0.272 0.791,0.697 -0.153,0.55 -0.657,1.019 -0.472,1.619 0.037,0.211 0.202,0.448 0.527,0.535 0.165,0.038 0.252,0.243 0.122,0.348 -0.07,0.06 -0.177,0.04 -0.267,0.04 0,-0.196 -0.304,-0.124 -0.223,-0.289 -0.521,-0.099 -1.031,0 -1.485,-0.278 -0.545,-0.255 -0.321,-0.956 -0.638,-1.375 -0.219,-0.304 -0.651,-0.171 -1.048,-0.304 -0.199,-0.052 -0.182,-0.455 -0.081,-0.591 m -43.252,9.954 -0.287,0.067 c -0.512,0.145 -0.636,-0.316 -0.929,-0.588 -0.13,-0.188 0.197,-0.232 0.217,-0.232 0.591,-0.301 1.3,-0.301 1.914,-0.315 0.107,0 0.458,0.359 0.281,0.616 -0.35,0.269 -0.883,0.041 -1.196,0.452 M 54.052,-29.81 c -0.061,-0.232 -0.115,-0.518 0.191,-0.57 0.377,-0.113 0.391,0.492 0.186,0.619 -0.111,0.078 -0.327,0.134 -0.377,-0.049 m 7.224,-5.44 c 0.18,-0.122 0.278,0.347 0.391,0.53 0.527,0.695 1.279,1.146 2.102,1.528 0.061,0 0,0.18 0,0.281 -0.026,-0.069 -0.052,-0.122 -0.099,-0.226 -0.159,0.38 -0.437,0.635 -0.79,0.82 -0.026,-0.342 -0.394,-0.568 -0.567,-0.695 -0.409,-0.316 -0.93,-0.649 -1.109,-1.092 -0.145,-0.359 -0.226,-0.923 0.072,-1.146 m -1.424,3.848 c 0.495,0.095 0.955,0.081 1.47,0.028 v 0.096 c -0.046,0.828 -0.86,0.736 -1.329,0.411 -0.037,0 0,-0.121 0,-0.121 -0.171,-0.093 -0.388,0.029 -0.489,-0.044 -0.191,-0.246 0.104,-0.469 0.348,-0.37 m 30.895,-15.125 c 0.292,0.121 0.481,0.613 0.214,0.689 -0.214,0.107 -0.607,0.107 -0.75,-0.218 -0.19,-0.35 0.246,-0.628 0.536,-0.471 m -9.416,-24.772 c 0.238,0 0.507,0.185 0.707,0.341 0.214,0.255 0.193,0.597 -0.069,0.663 -0.27,0.102 -0.571,0.241 -0.785,0.102 -0.382,-0.221 -0.449,-1.106 0.147,-1.106 m 9.506,15.353 c 0.202,0.741 -0.626,1.506 -1.416,1.416 -0.672,-0.055 -0.622,-0.634 -0.855,-1.132 -0.179,-0.411 0.577,-0.504 0.945,-0.637 0.451,-0.13 1.189,-0.064 1.326,0.353 M 65.94,-71.404 c 0,0.383 -0.527,0.383 -0.697,0.105 0.046,0.052 0.075,0.159 0.132,0.252 -0.225,-0.2 -0.657,-0.2 -0.593,-0.484 0.191,-0.782 1.063,-0.406 1.158,0.127 m -3.086,-1.882 c 0.092,0 0.026,0.47 -0.067,0.504 -0.443,0.084 -0.822,-0.385 -1.291,-0.22 0,-0.197 -0.04,-0.324 -0.139,-0.422 -0.035,-0.053 -0.185,-0.033 -0.298,-0.033 0.489,-0.587 1.254,-0.02 1.795,0.171 m -6.35,-0.854 c 0.432,-0.031 0.884,-0.031 1.211,0.383 -0.058,0.023 -0.145,0.115 -0.09,0.156 -0.261,0 -0.521,0.177 -0.84,0.09 -0.084,0 -0.304,0.054 -0.454,0.054 -0.041,-0.246 -0.122,-0.587 0.173,-0.683 m -1.743,1.894 c 0.307,0.06 0.108,0.368 -0.032,0.558 -0.109,0.099 -0.347,0.157 -0.376,0.07 -0.214,-0.347 0,-0.793 0.408,-0.628 m -0.202,-1.457 c 0.31,0.226 0.341,0.64 0.188,0.887 -0.113,0.216 -0.573,0.216 -0.608,-0.096 -0.087,-0.287 0.035,-0.565 0.179,-0.791 0,-0.031 0.186,-0.054 0.241,0 m -5.846,-2.226 c 0.023,-0.011 0.047,-0.009 0.07,-0.014 0.02,0.003 0.031,0.005 0.052,0.014 z m -6.12,27.676 c -0.157,0.177 -0.354,0.136 -0.588,0.136 0.04,-0.527 -0.24,-1.028 -0.122,-1.523 0.09,-0.292 0.484,-0.197 0.553,0 0.157,0.458 0,0.871 0.362,1.187 -0.072,0.02 -0.151,0.081 -0.208,0.07 0.014,0.043 0.026,0.084 0.003,0.13 m 0.431,-1.271 c -0.284,-0.18 -0.226,-0.724 0.067,-0.938 0.324,-0.162 0.735,-0.099 0.9,0.295 0.122,0.33 0.33,0.799 0,1.037 -0.394,0.272 -0.576,-0.177 -0.967,-0.394 m 1.387,1.688 c -0.2,0.174 -0.585,0.081 -0.892,0 -0.066,-0.049 -0.162,0.049 -0.272,0.081 -0.072,-0.249 0.168,-0.362 0.272,-0.362 0.423,0 0.77,-0.576 1.077,-0.336 0.226,0.2 0,0.501 -0.185,0.617 m 0.142,3.442 c -0.374,0.209 -1.034,0.113 -1.161,-0.24 -0.217,-0.564 0.819,-1.28 1.337,-0.944 0.415,0.255 0.226,0.979 -0.176,1.184 m 4.201,12.992 c 0.081,0.081 0.396,0.321 0.142,0.535 -0.212,0.191 -0.559,0.191 -0.649,0.101 -0.243,-0.266 0.133,-0.885 0.507,-0.636 m -1.757,-0.678 c 0.138,0.336 0.689,0.403 0.616,0.759 -0.046,0.156 -0.394,0.156 -0.541,0.156 -0.255,-0.012 -0.203,-0.362 -0.203,-0.672 -0.104,0.026 -0.182,0 -0.182,-0.084 0,-0.159 0.266,-0.214 0.31,-0.159 M -9.734,-67.069 c 0.336,0.176 0.808,0.306 0.585,0.834 0,0.031 -0.09,0 -0.165,0 -0.544,0.321 -1.271,0.199 -1.146,-0.461 0.022,-0.292 0.384,-0.599 0.726,-0.373 m -3.439,0.017 c 0.118,0.188 -0.134,0.327 -0.281,0.507 -0.223,0.188 -0.475,-0.05 -0.64,0.188 0,-0.188 -0.055,-0.429 0.064,-0.573 0.156,-0.241 0.576,-0.438 0.857,-0.122 m 58.754,19.1 c -0.333,0.165 -0.585,-0.052 -0.333,-0.347 0.124,-0.154 0.512,-0.061 0.729,-0.067 -0.11,0.131 -0.188,0.33 -0.396,0.414 m 11.989,-6.201 c 0.087,0.046 0.145,0.538 0,0.715 -0.139,0.109 -0.472,0 -0.738,0.069 -0.328,0.13 -0.44,0.414 -0.501,0.767 0,0.437 -0.417,0.759 -0.304,1.245 -0.548,-0.246 -0.516,-0.851 -0.345,-1.12 0.492,-0.744 0.822,-1.914 1.888,-1.676 m -11.303,-5.623 c -0.507,-0.157 0.9,-0.742 -0.093,-1.089 0.695,-0.828 2.475,-0.544 2.276,0.243 -0.203,0.689 -1.378,1.083 -2.183,0.846 m 6.436,4.907 c 0.232,0.258 -0.081,0.562 -0.35,0.716 0.269,0.231 0.538,0.411 0.439,0.824 -0.309,-0.109 -0.657,-0.196 -0.813,-0.413 -0.139,-0.319 -0.185,-0.828 0,-1.127 0.107,-0.139 0.594,-0.165 0.724,0 m -59.16,-29.39 c -0.086,-0.912 0.276,-1.514 1.196,-1.638 0.114,0.952 -0.263,1.511 -1.196,1.638 m -1.459,1.978 c -0.286,-0.507 0.328,-1.057 1.075,-1.129 0,0.257 0.092,0.57 -0.038,0.758 -0.258,0.348 -0.903,0.66 -1.037,0.371 m -3.268,3.321 c -0.099,-0.058 -0.13,-0.536 0,-0.661 0.133,-0.159 0.521,-0.101 0.746,-0.101 -0.176,0.385 -0.147,1.075 -0.746,0.762 m 31.136,13.33 c 0,-0.44 0.263,-0.794 0.57,-0.915 0.113,0.283 0.371,0.596 -0.102,0.886 -0.098,0.029 -0.33,0.029 -0.468,0.029 m -0.108,2.136 c 0.032,0.229 0.18,0.461 0.032,0.666 -0.032,0.032 -0.136,0 -0.17,0 -0.229,0.128 -0.316,-0.205 -0.493,-0.029 -0.069,-0.388 0,-0.637 0.264,-0.724 0.121,-0.034 0.367,-0.095 0.367,0.087 m -0.104,5.084 c 0.104,0.096 0.327,0.287 0.275,0.533 0.2,-0.032 0.405,0 0.539,0.226 0.121,0.098 -0.134,0.246 -0.07,0.4 -0.417,0.104 -0.697,-0.302 -1.025,-0.585 -0.295,-0.287 0.107,-0.698 0.281,-0.574 m -2.087,3.035 c 0,0.113 -0.189,0.113 -0.235,0.098 -0.301,-0.098 -0.382,-0.342 -0.428,-0.622 -0.09,-0.4 0.046,-0.779 0.327,-1.072 0.119,-0.176 0.336,0.038 0.428,0.293 0.186,0.414 -0.06,0.854 -0.092,1.303 m 2.015,-6.098 c 0.119,0.258 0.208,0.348 0.347,0.608 0.2,0.536 -0.113,1.503 -0.871,1.503 0,0.756 -0.675,0.996 -1.176,0.541 -0.642,-0.541 0.11,-1.508 0.594,-2.203 0.072,-0.171 0.173,-0.385 0.266,-0.573 0.234,-0.252 0.689,-0.159 0.84,0.124 m -1.471,3.564 c 0.148,-0.405 0.822,-0.214 1.06,0.073 0.029,0.156 0,0.431 -0.18,0.585 -0.188,0.199 -0.492,0.17 -0.651,0.28 -0.119,0.038 -0.255,0.171 -0.348,0.134 -0.147,-0.134 -0.147,-0.377 -0.11,-0.568 0.084,-0.182 0.162,-0.31 0.229,-0.504 m 0.272,3.405 c 0,-0.504 -0.124,-0.99 -0.043,-1.526 0.118,-0.399 0.593,-1.103 0.848,-0.648 0.292,0.527 0.741,1.303 0.394,1.925 -0.278,0.585 -0.102,1.355 -0.718,1.717 -0.278,0.188 -0.504,0.046 -0.683,-0.145 -0.189,-0.188 -0.215,-0.434 -0.096,-0.588 0.136,-0.228 0.275,-0.509 0.298,-0.735" /></g><g
           transform="translate(223.5464,380.252)"
           id="g24"><path
             id="path26"
             style="fill:#3067ba;fill-opacity:1;fill-rule:nonzero;stroke:none"
             d="m 0,0 c 0,10.938 -7.397,19.882 -18.819,19.882 -11.422,0 -18.817,-8.944 -18.817,-19.882 0,-10.918 7.395,-19.873 18.817,-19.873 C -7.397,-19.873 0,-10.918 0,0 m -44.828,0 c 0,14.81 10.785,26.226 26.009,26.226 C -3.59,26.226 7.192,14.81 7.192,0 c 0,-14.786 -10.782,-26.214 -26.011,-26.214 -15.224,0 -26.009,11.428 -26.009,26.214" /></g><g
           transform="translate(275.2148,394.4365)"
           id="g28"><path
             id="path30"
             style="fill:#3067ba;fill-opacity:1;fill-rule:nonzero;stroke:none"
             d="m 0,0 c -2.82,3.657 -7.476,5.698 -12.053,5.698 -11.211,0 -18.608,-8.943 -18.608,-20.296 0,-10.504 6.977,-19.459 18.608,-19.459 5.706,0 10.078,2.542 13.04,6.703 l 5.707,-4.296 c -1.477,-2.054 -7.47,-8.75 -18.889,-8.75 -15.858,0 -25.655,13.254 -25.655,25.802 0,15.504 10.643,26.64 26.005,26.64 6.555,0 13.466,-2.461 17.485,-7.754 z" /></g><g
           transform="translate(290.0913,405.2207)"
           id="g32"><path
             id="path34"
             style="fill:#3067ba;fill-opacity:1;fill-rule:nonzero;stroke:none"
             d="M 0,0 H 6.764 V -20.728 H 32.629 V 0 h 6.773 v -49.912 h -6.773 v 22.841 H 6.764 V -49.912 H 0 Z" /></g><g
           transform="translate(370.0869,373.5625)"
           id="g36"><path
             id="path38"
             style="fill:#3067ba;fill-opacity:1;fill-rule:nonzero;stroke:none"
             d="M 0,0 -9.3,22.91 H -9.439 L -18.887,0 Z m -12.117,31.66 h 6.129 L 15.368,-18.258 H 7.476 L 2.472,-5.915 h -23.753 l -4.937,-12.343 h -7.888 z" /></g></g></g></g></svg>
